<mxfile host="app.diagrams.net" agent="Mozilla/5.0 (Windows NT 10.0; Win64; x64) AppleWebKit/537.36 (KHTML, like Gecko) Chrome/131.0.0.0 Safari/537.36" version="25.0.1">
  <diagram name="Page-1" id="nrFEWPkoovIpoGMOtmXM">
    <mxGraphModel dx="1195" dy="643" grid="1" gridSize="10" guides="1" tooltips="1" connect="1" arrows="1" fold="1" page="1" pageScale="1" pageWidth="1169" pageHeight="827" math="0" shadow="0">
      <root>
        <mxCell id="0" />
        <mxCell id="1" parent="0" />
        <mxCell id="30Cwi_FGsYkR56jSSKwk-1" value="Employee" style="whiteSpace=wrap;html=1;align=center;" vertex="1" parent="1">
          <mxGeometry x="210" y="200" width="100" height="40" as="geometry" />
        </mxCell>
        <mxCell id="30Cwi_FGsYkR56jSSKwk-3" value="Book" style="whiteSpace=wrap;html=1;align=center;" vertex="1" parent="1">
          <mxGeometry x="560" y="360" width="100" height="40" as="geometry" />
        </mxCell>
        <mxCell id="30Cwi_FGsYkR56jSSKwk-4" value="User" style="whiteSpace=wrap;html=1;align=center;" vertex="1" parent="1">
          <mxGeometry x="560" y="200" width="100" height="40" as="geometry" />
        </mxCell>
        <mxCell id="30Cwi_FGsYkR56jSSKwk-5" value="Floor" style="whiteSpace=wrap;html=1;align=center;" vertex="1" parent="1">
          <mxGeometry x="210" y="440" width="100" height="40" as="geometry" />
        </mxCell>
        <mxCell id="30Cwi_FGsYkR56jSSKwk-6" value="Publisher" style="whiteSpace=wrap;html=1;align=center;" vertex="1" parent="1">
          <mxGeometry x="840" y="401" width="100" height="40" as="geometry" />
        </mxCell>
        <mxCell id="30Cwi_FGsYkR56jSSKwk-7" value="Category" style="whiteSpace=wrap;html=1;align=center;" vertex="1" parent="1">
          <mxGeometry x="619" y="520" width="100" height="40" as="geometry" />
        </mxCell>
        <mxCell id="30Cwi_FGsYkR56jSSKwk-8" value="Shelf" style="whiteSpace=wrap;html=1;align=center;" vertex="1" parent="1">
          <mxGeometry x="509" y="520" width="100" height="40" as="geometry" />
        </mxCell>
        <mxCell id="30Cwi_FGsYkR56jSSKwk-9" value="Record" style="shape=rhombus;perimeter=rhombusPerimeter;whiteSpace=wrap;html=1;align=center;" vertex="1" parent="1">
          <mxGeometry x="400" y="195" width="60" height="50" as="geometry" />
        </mxCell>
        <mxCell id="30Cwi_FGsYkR56jSSKwk-11" value="" style="endArrow=none;html=1;rounded=0;exitX=1;exitY=0.5;exitDx=0;exitDy=0;entryX=0;entryY=0.5;entryDx=0;entryDy=0;" edge="1" parent="1" source="30Cwi_FGsYkR56jSSKwk-1" target="30Cwi_FGsYkR56jSSKwk-9">
          <mxGeometry relative="1" as="geometry">
            <mxPoint x="340" y="200" as="sourcePoint" />
            <mxPoint x="500" y="200" as="targetPoint" />
          </mxGeometry>
        </mxCell>
        <mxCell id="30Cwi_FGsYkR56jSSKwk-12" value="" style="endArrow=none;html=1;rounded=0;exitX=1;exitY=0.5;exitDx=0;exitDy=0;entryX=0;entryY=0.5;entryDx=0;entryDy=0;" edge="1" parent="1" source="30Cwi_FGsYkR56jSSKwk-9" target="30Cwi_FGsYkR56jSSKwk-4">
          <mxGeometry relative="1" as="geometry">
            <mxPoint x="490" y="219.83" as="sourcePoint" />
            <mxPoint x="550" y="219.83" as="targetPoint" />
          </mxGeometry>
        </mxCell>
        <mxCell id="30Cwi_FGsYkR56jSSKwk-14" value="Manage" style="shape=rhombus;perimeter=rhombusPerimeter;whiteSpace=wrap;html=1;align=center;" vertex="1" parent="1">
          <mxGeometry x="185" y="310" width="70" height="60" as="geometry" />
        </mxCell>
        <mxCell id="30Cwi_FGsYkR56jSSKwk-15" value="" style="endArrow=none;html=1;rounded=0;exitX=0.5;exitY=0;exitDx=0;exitDy=0;entryX=0.5;entryY=1;entryDx=0;entryDy=0;" edge="1" parent="1" source="30Cwi_FGsYkR56jSSKwk-14" target="30Cwi_FGsYkR56jSSKwk-1">
          <mxGeometry relative="1" as="geometry">
            <mxPoint x="170" y="230" as="sourcePoint" />
            <mxPoint x="330" y="230" as="targetPoint" />
          </mxGeometry>
        </mxCell>
        <mxCell id="30Cwi_FGsYkR56jSSKwk-16" value="" style="endArrow=none;html=1;rounded=0;exitX=0.5;exitY=0;exitDx=0;exitDy=0;entryX=0.5;entryY=1;entryDx=0;entryDy=0;" edge="1" parent="1" target="30Cwi_FGsYkR56jSSKwk-14">
          <mxGeometry relative="1" as="geometry">
            <mxPoint x="259.79999999999995" y="440" as="sourcePoint" />
            <mxPoint x="259.79999999999995" y="385" as="targetPoint" />
          </mxGeometry>
        </mxCell>
        <mxCell id="30Cwi_FGsYkR56jSSKwk-17" value="Work" style="shape=rhombus;perimeter=rhombusPerimeter;whiteSpace=wrap;html=1;align=center;" vertex="1" parent="1">
          <mxGeometry x="265" y="310" width="70" height="60" as="geometry" />
        </mxCell>
        <mxCell id="30Cwi_FGsYkR56jSSKwk-18" value="" style="endArrow=none;html=1;rounded=0;exitX=0.5;exitY=0;exitDx=0;exitDy=0;entryX=0.5;entryY=1;entryDx=0;entryDy=0;" edge="1" parent="1" source="30Cwi_FGsYkR56jSSKwk-5" target="30Cwi_FGsYkR56jSSKwk-17">
          <mxGeometry relative="1" as="geometry">
            <mxPoint x="404.79999999999995" y="440" as="sourcePoint" />
            <mxPoint x="310" y="370" as="targetPoint" />
          </mxGeometry>
        </mxCell>
        <mxCell id="30Cwi_FGsYkR56jSSKwk-19" value="" style="endArrow=none;html=1;rounded=0;exitX=0.5;exitY=0;exitDx=0;exitDy=0;entryX=0.5;entryY=1;entryDx=0;entryDy=0;" edge="1" parent="1" source="30Cwi_FGsYkR56jSSKwk-17" target="30Cwi_FGsYkR56jSSKwk-1">
          <mxGeometry relative="1" as="geometry">
            <mxPoint x="477.4" y="360" as="sourcePoint" />
            <mxPoint x="382.6" y="290" as="targetPoint" />
          </mxGeometry>
        </mxCell>
        <mxCell id="30Cwi_FGsYkR56jSSKwk-20" value="Borrow" style="shape=rhombus;perimeter=rhombusPerimeter;whiteSpace=wrap;html=1;align=center;" vertex="1" parent="1">
          <mxGeometry x="580" y="280" width="60" height="50" as="geometry" />
        </mxCell>
        <mxCell id="30Cwi_FGsYkR56jSSKwk-21" value="" style="endArrow=none;html=1;rounded=0;exitX=1;exitY=1;exitDx=0;exitDy=0;entryX=0;entryY=0.5;entryDx=0;entryDy=0;" edge="1" parent="1" source="30Cwi_FGsYkR56jSSKwk-1" target="30Cwi_FGsYkR56jSSKwk-20">
          <mxGeometry relative="1" as="geometry">
            <mxPoint x="490" y="360" as="sourcePoint" />
            <mxPoint x="460" y="450" as="targetPoint" />
          </mxGeometry>
        </mxCell>
        <mxCell id="30Cwi_FGsYkR56jSSKwk-22" value="" style="endArrow=none;html=1;rounded=0;exitX=0.5;exitY=0;exitDx=0;exitDy=0;entryX=0.5;entryY=1;entryDx=0;entryDy=0;" edge="1" parent="1" source="30Cwi_FGsYkR56jSSKwk-3" target="30Cwi_FGsYkR56jSSKwk-20">
          <mxGeometry relative="1" as="geometry">
            <mxPoint x="320" y="250" as="sourcePoint" />
            <mxPoint x="470" y="315" as="targetPoint" />
          </mxGeometry>
        </mxCell>
        <mxCell id="30Cwi_FGsYkR56jSSKwk-23" value="" style="endArrow=none;html=1;rounded=0;exitX=0.5;exitY=1;exitDx=0;exitDy=0;entryX=0.5;entryY=0;entryDx=0;entryDy=0;" edge="1" parent="1" source="30Cwi_FGsYkR56jSSKwk-4" target="30Cwi_FGsYkR56jSSKwk-20">
          <mxGeometry relative="1" as="geometry">
            <mxPoint x="330" y="260" as="sourcePoint" />
            <mxPoint x="480" y="325" as="targetPoint" />
          </mxGeometry>
        </mxCell>
        <mxCell id="30Cwi_FGsYkR56jSSKwk-28" value="" style="endArrow=none;html=1;rounded=0;exitX=0;exitY=0.5;exitDx=0;exitDy=0;entryX=0.95;entryY=0.53;entryDx=0;entryDy=0;entryPerimeter=0;" edge="1" parent="1" target="30Cwi_FGsYkR56jSSKwk-123">
          <mxGeometry relative="1" as="geometry">
            <mxPoint x="840" y="347.5" as="sourcePoint" />
            <mxPoint x="770" y="347.5" as="targetPoint" />
          </mxGeometry>
        </mxCell>
        <mxCell id="30Cwi_FGsYkR56jSSKwk-29" value="" style="endArrow=none;html=1;rounded=0;exitX=0.047;exitY=0.559;exitDx=0;exitDy=0;entryX=1;entryY=0.5;entryDx=0;entryDy=0;exitPerimeter=0;" edge="1" parent="1">
          <mxGeometry relative="1" as="geometry">
            <mxPoint x="712.8199999999999" y="346.95000000000005" as="sourcePoint" />
            <mxPoint x="660" y="379" as="targetPoint" />
          </mxGeometry>
        </mxCell>
        <mxCell id="30Cwi_FGsYkR56jSSKwk-30" value="Has" style="shape=rhombus;perimeter=rhombusPerimeter;whiteSpace=wrap;html=1;align=center;" vertex="1" parent="1">
          <mxGeometry x="710" y="396" width="60" height="50" as="geometry" />
        </mxCell>
        <mxCell id="30Cwi_FGsYkR56jSSKwk-32" value="" style="endArrow=none;html=1;rounded=0;exitX=0;exitY=0.5;exitDx=0;exitDy=0;entryX=1;entryY=0.5;entryDx=0;entryDy=0;" edge="1" parent="1" source="30Cwi_FGsYkR56jSSKwk-6" target="30Cwi_FGsYkR56jSSKwk-30">
          <mxGeometry relative="1" as="geometry">
            <mxPoint x="830" y="481" as="sourcePoint" />
            <mxPoint x="780" y="436" as="targetPoint" />
          </mxGeometry>
        </mxCell>
        <mxCell id="30Cwi_FGsYkR56jSSKwk-33" value="Classify" style="shape=rhombus;perimeter=rhombusPerimeter;whiteSpace=wrap;html=1;align=center;" vertex="1" parent="1">
          <mxGeometry x="639" y="430" width="60" height="50" as="geometry" />
        </mxCell>
        <mxCell id="30Cwi_FGsYkR56jSSKwk-34" value="" style="endArrow=none;html=1;rounded=0;exitX=0.453;exitY=0.043;exitDx=0;exitDy=0;entryX=0.5;entryY=1;entryDx=0;entryDy=0;exitPerimeter=0;" edge="1" parent="1" source="30Cwi_FGsYkR56jSSKwk-33" target="30Cwi_FGsYkR56jSSKwk-3">
          <mxGeometry relative="1" as="geometry">
            <mxPoint x="720" y="435" as="sourcePoint" />
            <mxPoint x="670" y="390" as="targetPoint" />
          </mxGeometry>
        </mxCell>
        <mxCell id="30Cwi_FGsYkR56jSSKwk-35" value="" style="endArrow=none;html=1;rounded=0;exitX=0.5;exitY=0;exitDx=0;exitDy=0;entryX=0.5;entryY=1;entryDx=0;entryDy=0;" edge="1" parent="1" source="30Cwi_FGsYkR56jSSKwk-7" target="30Cwi_FGsYkR56jSSKwk-33">
          <mxGeometry relative="1" as="geometry">
            <mxPoint x="679" y="430" as="sourcePoint" />
            <mxPoint x="624" y="410" as="targetPoint" />
          </mxGeometry>
        </mxCell>
        <mxCell id="30Cwi_FGsYkR56jSSKwk-36" value="Assigned" style="shape=rhombus;perimeter=rhombusPerimeter;whiteSpace=wrap;html=1;align=center;" vertex="1" parent="1">
          <mxGeometry x="529" y="430" width="60" height="50" as="geometry" />
        </mxCell>
        <mxCell id="30Cwi_FGsYkR56jSSKwk-37" value="" style="endArrow=none;html=1;rounded=0;entryX=0.545;entryY=0.06;entryDx=0;entryDy=0;entryPerimeter=0;" edge="1" parent="1" target="30Cwi_FGsYkR56jSSKwk-36">
          <mxGeometry relative="1" as="geometry">
            <mxPoint x="610" y="400" as="sourcePoint" />
            <mxPoint x="620" y="410" as="targetPoint" />
          </mxGeometry>
        </mxCell>
        <mxCell id="30Cwi_FGsYkR56jSSKwk-38" value="" style="endArrow=none;html=1;rounded=0;exitX=0.5;exitY=0;exitDx=0;exitDy=0;entryX=0.5;entryY=1;entryDx=0;entryDy=0;" edge="1" parent="1">
          <mxGeometry relative="1" as="geometry">
            <mxPoint x="558.71" y="520" as="sourcePoint" />
            <mxPoint x="558.71" y="480" as="targetPoint" />
          </mxGeometry>
        </mxCell>
        <mxCell id="30Cwi_FGsYkR56jSSKwk-39" value="Located" style="shape=rhombus;perimeter=rhombusPerimeter;whiteSpace=wrap;html=1;align=center;" vertex="1" parent="1">
          <mxGeometry x="350" y="500" width="60" height="50" as="geometry" />
        </mxCell>
        <mxCell id="30Cwi_FGsYkR56jSSKwk-41" value="" style="endArrow=none;html=1;rounded=0;exitX=0;exitY=0.5;exitDx=0;exitDy=0;entryX=1;entryY=0.5;entryDx=0;entryDy=0;" edge="1" parent="1" source="30Cwi_FGsYkR56jSSKwk-8" target="30Cwi_FGsYkR56jSSKwk-39">
          <mxGeometry relative="1" as="geometry">
            <mxPoint x="578.71" y="540" as="sourcePoint" />
            <mxPoint x="578.71" y="500" as="targetPoint" />
          </mxGeometry>
        </mxCell>
        <mxCell id="30Cwi_FGsYkR56jSSKwk-42" value="&lt;font style=&quot;font-size: 9px;&quot;&gt;Emp_Id&lt;/font&gt;" style="ellipse;whiteSpace=wrap;html=1;align=center;fontStyle=4;" vertex="1" parent="1">
          <mxGeometry x="130" y="150" width="50" height="20" as="geometry" />
        </mxCell>
        <mxCell id="30Cwi_FGsYkR56jSSKwk-44" value="&lt;font style=&quot;font-size: 9px;&quot;&gt;Name&lt;/font&gt;" style="ellipse;whiteSpace=wrap;html=1;align=center;" vertex="1" parent="1">
          <mxGeometry x="185" y="140" width="50" height="20" as="geometry" />
        </mxCell>
        <mxCell id="30Cwi_FGsYkR56jSSKwk-45" value="&lt;font style=&quot;font-size: 9px;&quot;&gt;Fname&lt;/font&gt;" style="ellipse;whiteSpace=wrap;html=1;align=center;" vertex="1" parent="1">
          <mxGeometry x="160" y="100" width="50" height="20" as="geometry" />
        </mxCell>
        <mxCell id="30Cwi_FGsYkR56jSSKwk-46" value="&lt;font style=&quot;font-size: 9px;&quot;&gt;Lname&lt;/font&gt;" style="ellipse;whiteSpace=wrap;html=1;align=center;" vertex="1" parent="1">
          <mxGeometry x="215" y="100" width="50" height="20" as="geometry" />
        </mxCell>
        <mxCell id="30Cwi_FGsYkR56jSSKwk-47" value="&lt;font style=&quot;font-size: 9px;&quot;&gt;DateOB&lt;/font&gt;" style="ellipse;whiteSpace=wrap;html=1;align=center;" vertex="1" parent="1">
          <mxGeometry x="250" y="140" width="50" height="20" as="geometry" />
        </mxCell>
        <mxCell id="30Cwi_FGsYkR56jSSKwk-48" value="&lt;font style=&quot;font-size: 9px;&quot;&gt;Bouns&lt;/font&gt;" style="ellipse;whiteSpace=wrap;html=1;align=center;" vertex="1" parent="1">
          <mxGeometry x="310" y="140" width="50" height="20" as="geometry" />
        </mxCell>
        <mxCell id="30Cwi_FGsYkR56jSSKwk-49" value="&lt;font style=&quot;font-size: 9px;&quot;&gt;Address&lt;/font&gt;" style="ellipse;whiteSpace=wrap;html=1;align=center;" vertex="1" parent="1">
          <mxGeometry x="135" y="190" width="50" height="20" as="geometry" />
        </mxCell>
        <mxCell id="30Cwi_FGsYkR56jSSKwk-50" value="&lt;font style=&quot;font-size: 9px;&quot;&gt;Phone&lt;/font&gt;" style="ellipse;whiteSpace=wrap;html=1;align=center;" vertex="1" parent="1">
          <mxGeometry x="135" y="220" width="50" height="20" as="geometry" />
        </mxCell>
        <mxCell id="30Cwi_FGsYkR56jSSKwk-51" value="" style="endArrow=none;html=1;rounded=0;exitX=0;exitY=0.5;exitDx=0;exitDy=0;entryX=1;entryY=0.5;entryDx=0;entryDy=0;" edge="1" parent="1" source="30Cwi_FGsYkR56jSSKwk-1" target="30Cwi_FGsYkR56jSSKwk-49">
          <mxGeometry relative="1" as="geometry">
            <mxPoint x="-30" y="220" as="sourcePoint" />
            <mxPoint x="130" y="220" as="targetPoint" />
          </mxGeometry>
        </mxCell>
        <mxCell id="30Cwi_FGsYkR56jSSKwk-52" value="" style="endArrow=none;html=1;rounded=0;exitX=0;exitY=0.5;exitDx=0;exitDy=0;entryX=1;entryY=0.5;entryDx=0;entryDy=0;" edge="1" parent="1" source="30Cwi_FGsYkR56jSSKwk-1" target="30Cwi_FGsYkR56jSSKwk-50">
          <mxGeometry relative="1" as="geometry">
            <mxPoint x="220" y="230" as="sourcePoint" />
            <mxPoint x="195" y="210" as="targetPoint" />
          </mxGeometry>
        </mxCell>
        <mxCell id="30Cwi_FGsYkR56jSSKwk-53" value="" style="endArrow=none;html=1;rounded=0;exitX=0;exitY=0;exitDx=0;exitDy=0;entryX=1;entryY=0.5;entryDx=0;entryDy=0;" edge="1" parent="1" source="30Cwi_FGsYkR56jSSKwk-1" target="30Cwi_FGsYkR56jSSKwk-42">
          <mxGeometry relative="1" as="geometry">
            <mxPoint x="220" y="230" as="sourcePoint" />
            <mxPoint x="195" y="240" as="targetPoint" />
          </mxGeometry>
        </mxCell>
        <mxCell id="30Cwi_FGsYkR56jSSKwk-54" value="" style="endArrow=none;html=1;rounded=0;exitX=0.25;exitY=0;exitDx=0;exitDy=0;entryX=0.5;entryY=1;entryDx=0;entryDy=0;" edge="1" parent="1" source="30Cwi_FGsYkR56jSSKwk-1" target="30Cwi_FGsYkR56jSSKwk-44">
          <mxGeometry relative="1" as="geometry">
            <mxPoint x="220" y="210" as="sourcePoint" />
            <mxPoint x="190" y="170" as="targetPoint" />
          </mxGeometry>
        </mxCell>
        <mxCell id="30Cwi_FGsYkR56jSSKwk-55" value="" style="endArrow=none;html=1;rounded=0;exitX=0.5;exitY=0;exitDx=0;exitDy=0;entryX=0.5;entryY=1;entryDx=0;entryDy=0;" edge="1" parent="1" source="30Cwi_FGsYkR56jSSKwk-44" target="30Cwi_FGsYkR56jSSKwk-45">
          <mxGeometry relative="1" as="geometry">
            <mxPoint x="245" y="210" as="sourcePoint" />
            <mxPoint x="220" y="170" as="targetPoint" />
          </mxGeometry>
        </mxCell>
        <mxCell id="30Cwi_FGsYkR56jSSKwk-56" value="" style="endArrow=none;html=1;rounded=0;exitX=0.5;exitY=0;exitDx=0;exitDy=0;entryX=0.5;entryY=1;entryDx=0;entryDy=0;" edge="1" parent="1" source="30Cwi_FGsYkR56jSSKwk-44" target="30Cwi_FGsYkR56jSSKwk-46">
          <mxGeometry relative="1" as="geometry">
            <mxPoint x="220" y="150" as="sourcePoint" />
            <mxPoint x="195" y="130" as="targetPoint" />
          </mxGeometry>
        </mxCell>
        <mxCell id="30Cwi_FGsYkR56jSSKwk-57" value="" style="endArrow=none;html=1;rounded=0;exitX=0.5;exitY=0;exitDx=0;exitDy=0;entryX=0.5;entryY=1;entryDx=0;entryDy=0;" edge="1" parent="1" source="30Cwi_FGsYkR56jSSKwk-1" target="30Cwi_FGsYkR56jSSKwk-47">
          <mxGeometry relative="1" as="geometry">
            <mxPoint x="245" y="210" as="sourcePoint" />
            <mxPoint x="220" y="170" as="targetPoint" />
          </mxGeometry>
        </mxCell>
        <mxCell id="30Cwi_FGsYkR56jSSKwk-58" value="" style="endArrow=none;html=1;rounded=0;exitX=0.75;exitY=0;exitDx=0;exitDy=0;entryX=0.5;entryY=1;entryDx=0;entryDy=0;" edge="1" parent="1" source="30Cwi_FGsYkR56jSSKwk-1" target="30Cwi_FGsYkR56jSSKwk-48">
          <mxGeometry relative="1" as="geometry">
            <mxPoint x="270" y="210" as="sourcePoint" />
            <mxPoint x="285" y="170" as="targetPoint" />
          </mxGeometry>
        </mxCell>
        <mxCell id="30Cwi_FGsYkR56jSSKwk-59" value="Supervise" style="shape=rhombus;perimeter=rhombusPerimeter;whiteSpace=wrap;html=1;align=center;" vertex="1" parent="1">
          <mxGeometry x="100" y="260" width="70" height="60" as="geometry" />
        </mxCell>
        <mxCell id="30Cwi_FGsYkR56jSSKwk-60" value="" style="endArrow=none;html=1;rounded=0;exitX=0;exitY=1;exitDx=0;exitDy=0;entryX=0.5;entryY=0;entryDx=0;entryDy=0;" edge="1" parent="1" source="30Cwi_FGsYkR56jSSKwk-1" target="30Cwi_FGsYkR56jSSKwk-59">
          <mxGeometry relative="1" as="geometry">
            <mxPoint x="-70" y="270" as="sourcePoint" />
            <mxPoint x="90" y="270" as="targetPoint" />
          </mxGeometry>
        </mxCell>
        <mxCell id="30Cwi_FGsYkR56jSSKwk-61" value="" style="endArrow=none;html=1;rounded=0;exitX=0.25;exitY=1;exitDx=0;exitDy=0;entryX=1;entryY=0.5;entryDx=0;entryDy=0;" edge="1" parent="1" source="30Cwi_FGsYkR56jSSKwk-1" target="30Cwi_FGsYkR56jSSKwk-59">
          <mxGeometry relative="1" as="geometry">
            <mxPoint x="242.5" y="260" as="sourcePoint" />
            <mxPoint x="177.5" y="270" as="targetPoint" />
          </mxGeometry>
        </mxCell>
        <mxCell id="30Cwi_FGsYkR56jSSKwk-63" value="&lt;font style=&quot;font-size: 9px;&quot;&gt;FloorNo&lt;/font&gt;" style="ellipse;whiteSpace=wrap;html=1;align=center;" vertex="1" parent="1">
          <mxGeometry x="135" y="437" width="50" height="20" as="geometry" />
        </mxCell>
        <mxCell id="30Cwi_FGsYkR56jSSKwk-64" value="&lt;font style=&quot;font-size: 8px;&quot;&gt;NoOfBooks&lt;/font&gt;" style="ellipse;whiteSpace=wrap;html=1;align=center;" vertex="1" parent="1">
          <mxGeometry x="136" y="465" width="50" height="20" as="geometry" />
        </mxCell>
        <mxCell id="30Cwi_FGsYkR56jSSKwk-65" value="" style="endArrow=none;html=1;rounded=0;entryX=1;entryY=0.5;entryDx=0;entryDy=0;exitX=0;exitY=0.25;exitDx=0;exitDy=0;" edge="1" parent="1" source="30Cwi_FGsYkR56jSSKwk-5" target="30Cwi_FGsYkR56jSSKwk-63">
          <mxGeometry relative="1" as="geometry">
            <mxPoint x="195" y="430" as="sourcePoint" />
            <mxPoint x="195" y="240" as="targetPoint" />
          </mxGeometry>
        </mxCell>
        <mxCell id="30Cwi_FGsYkR56jSSKwk-66" value="" style="endArrow=none;html=1;rounded=0;entryX=1;entryY=0.5;entryDx=0;entryDy=0;exitX=0;exitY=0.75;exitDx=0;exitDy=0;" edge="1" parent="1" source="30Cwi_FGsYkR56jSSKwk-5" target="30Cwi_FGsYkR56jSSKwk-64">
          <mxGeometry relative="1" as="geometry">
            <mxPoint x="220" y="460" as="sourcePoint" />
            <mxPoint x="195" y="460" as="targetPoint" />
          </mxGeometry>
        </mxCell>
        <mxCell id="30Cwi_FGsYkR56jSSKwk-67" value="" style="endArrow=none;html=1;rounded=0;exitX=0.455;exitY=0;exitDx=0;exitDy=0;entryX=0.43;entryY=0.938;entryDx=0;entryDy=0;exitPerimeter=0;entryPerimeter=0;" edge="1" parent="1" source="30Cwi_FGsYkR56jSSKwk-5" target="30Cwi_FGsYkR56jSSKwk-14">
          <mxGeometry relative="1" as="geometry">
            <mxPoint x="188.93999999999994" y="444.07" as="sourcePoint" />
            <mxPoint x="235" y="363.93" as="targetPoint" />
          </mxGeometry>
        </mxCell>
        <mxCell id="30Cwi_FGsYkR56jSSKwk-72" value="1" style="resizable=0;html=1;whiteSpace=wrap;align=left;verticalAlign=bottom;" connectable="0" vertex="1" parent="1">
          <mxGeometry x="240" y="256" as="geometry" />
        </mxCell>
        <mxCell id="30Cwi_FGsYkR56jSSKwk-73" value="1" style="resizable=0;html=1;whiteSpace=wrap;align=left;verticalAlign=bottom;" connectable="0" vertex="1" parent="1">
          <mxGeometry x="210" y="256" as="geometry" />
        </mxCell>
        <mxCell id="30Cwi_FGsYkR56jSSKwk-74" value="1" style="resizable=0;html=1;whiteSpace=wrap;align=left;verticalAlign=bottom;" connectable="0" vertex="1" parent="1">
          <mxGeometry x="199" y="244" as="geometry" />
        </mxCell>
        <mxCell id="30Cwi_FGsYkR56jSSKwk-75" value="1" style="resizable=0;html=1;whiteSpace=wrap;align=left;verticalAlign=bottom;" connectable="0" vertex="1" parent="1">
          <mxGeometry x="240" y="443" as="geometry" />
        </mxCell>
        <mxCell id="30Cwi_FGsYkR56jSSKwk-76" value="1" style="resizable=0;html=1;whiteSpace=wrap;align=left;verticalAlign=bottom;" connectable="0" vertex="1" parent="1">
          <mxGeometry x="272" y="442" as="geometry" />
        </mxCell>
        <mxCell id="30Cwi_FGsYkR56jSSKwk-77" value="M" style="resizable=0;html=1;whiteSpace=wrap;align=left;verticalAlign=bottom;" connectable="0" vertex="1" parent="1">
          <mxGeometry x="271" y="256" as="geometry" />
        </mxCell>
        <mxCell id="30Cwi_FGsYkR56jSSKwk-78" value="" style="endArrow=none;html=1;rounded=0;exitX=0.607;exitY=0.113;exitDx=0;exitDy=0;entryX=0.56;entryY=1.035;entryDx=0;entryDy=0;entryPerimeter=0;exitPerimeter=0;" edge="1" parent="1" source="30Cwi_FGsYkR56jSSKwk-17">
          <mxGeometry relative="1" as="geometry">
            <mxPoint x="309" y="319" as="sourcePoint" />
            <mxPoint x="265" y="240.39999999999998" as="targetPoint" />
          </mxGeometry>
        </mxCell>
        <mxCell id="30Cwi_FGsYkR56jSSKwk-79" value="" style="endArrow=none;html=1;rounded=0;exitX=0.544;exitY=0.026;exitDx=0;exitDy=0;entryX=0.604;entryY=0.918;entryDx=0;entryDy=0;entryPerimeter=0;exitPerimeter=0;" edge="1" parent="1">
          <mxGeometry relative="1" as="geometry">
            <mxPoint x="264.4000000000001" y="440.03999999999996" as="sourcePoint" />
            <mxPoint x="307.2800000000001" y="364.08000000000004" as="targetPoint" />
          </mxGeometry>
        </mxCell>
        <mxCell id="30Cwi_FGsYkR56jSSKwk-80" value="" style="endArrow=none;html=1;rounded=0;exitX=0.25;exitY=1;exitDx=0;exitDy=0;entryX=0.953;entryY=0.456;entryDx=0;entryDy=0;entryPerimeter=0;" edge="1" parent="1" target="30Cwi_FGsYkR56jSSKwk-59">
          <mxGeometry relative="1" as="geometry">
            <mxPoint x="231.5" y="240" as="sourcePoint" />
            <mxPoint x="166.5" y="290" as="targetPoint" />
          </mxGeometry>
        </mxCell>
        <mxCell id="30Cwi_FGsYkR56jSSKwk-82" value="" style="endArrow=none;html=1;rounded=0;exitX=0.94;exitY=0.568;exitDx=0;exitDy=0;entryX=0.08;entryY=0.564;entryDx=0;entryDy=0;exitPerimeter=0;entryPerimeter=0;" edge="1" parent="1" target="30Cwi_FGsYkR56jSSKwk-9">
          <mxGeometry relative="1" as="geometry">
            <mxPoint x="309.6" y="222.6" as="sourcePoint" />
            <mxPoint x="413.6" y="223.43" as="targetPoint" />
          </mxGeometry>
        </mxCell>
        <mxCell id="30Cwi_FGsYkR56jSSKwk-83" value="1" style="resizable=0;html=1;whiteSpace=wrap;align=left;verticalAlign=bottom;" connectable="0" vertex="1" parent="1">
          <mxGeometry x="310" y="220" as="geometry" />
        </mxCell>
        <mxCell id="30Cwi_FGsYkR56jSSKwk-84" value="M" style="resizable=0;html=1;whiteSpace=wrap;align=left;verticalAlign=bottom;" connectable="0" vertex="1" parent="1">
          <mxGeometry x="545" y="221" as="geometry" />
        </mxCell>
        <mxCell id="30Cwi_FGsYkR56jSSKwk-85" value="&lt;font style=&quot;font-size: 9px;&quot;&gt;Name&lt;/font&gt;" style="ellipse;whiteSpace=wrap;html=1;align=center;" vertex="1" parent="1">
          <mxGeometry x="580" y="150" width="50" height="20" as="geometry" />
        </mxCell>
        <mxCell id="30Cwi_FGsYkR56jSSKwk-86" value="&lt;font style=&quot;font-size: 9px;&quot;&gt;SSN&lt;/font&gt;" style="ellipse;whiteSpace=wrap;html=1;align=center;fontStyle=4;" vertex="1" parent="1">
          <mxGeometry x="520" y="160" width="50" height="20" as="geometry" />
        </mxCell>
        <mxCell id="30Cwi_FGsYkR56jSSKwk-87" value="&lt;font style=&quot;font-size: 9px;&quot;&gt;Email&lt;/font&gt;" style="ellipse;whiteSpace=wrap;html=1;align=center;" vertex="1" parent="1">
          <mxGeometry x="640" y="150" width="50" height="20" as="geometry" />
        </mxCell>
        <mxCell id="30Cwi_FGsYkR56jSSKwk-89" value="&lt;font style=&quot;font-size: 9px;&quot;&gt;Phone&lt;/font&gt;" style="ellipse;shape=doubleEllipse;margin=3;whiteSpace=wrap;html=1;align=center;" vertex="1" parent="1">
          <mxGeometry x="690" y="160" width="61" height="20" as="geometry" />
        </mxCell>
        <mxCell id="30Cwi_FGsYkR56jSSKwk-90" value="" style="endArrow=none;html=1;rounded=0;exitX=1;exitY=0;exitDx=0;exitDy=0;entryX=0.5;entryY=1;entryDx=0;entryDy=0;" edge="1" parent="1" source="30Cwi_FGsYkR56jSSKwk-4" target="30Cwi_FGsYkR56jSSKwk-89">
          <mxGeometry relative="1" as="geometry">
            <mxPoint x="690" y="250" as="sourcePoint" />
            <mxPoint x="740" y="210" as="targetPoint" />
          </mxGeometry>
        </mxCell>
        <mxCell id="30Cwi_FGsYkR56jSSKwk-91" value="" style="endArrow=none;html=1;rounded=0;exitX=0.75;exitY=0;exitDx=0;exitDy=0;entryX=0.5;entryY=1;entryDx=0;entryDy=0;" edge="1" parent="1" source="30Cwi_FGsYkR56jSSKwk-4" target="30Cwi_FGsYkR56jSSKwk-87">
          <mxGeometry relative="1" as="geometry">
            <mxPoint x="609" y="200" as="sourcePoint" />
            <mxPoint x="670" y="180" as="targetPoint" />
          </mxGeometry>
        </mxCell>
        <mxCell id="30Cwi_FGsYkR56jSSKwk-92" value="" style="endArrow=none;html=1;rounded=0;exitX=0.5;exitY=0;exitDx=0;exitDy=0;entryX=0.5;entryY=1;entryDx=0;entryDy=0;" edge="1" parent="1" source="30Cwi_FGsYkR56jSSKwk-4" target="30Cwi_FGsYkR56jSSKwk-85">
          <mxGeometry relative="1" as="geometry">
            <mxPoint x="645" y="210" as="sourcePoint" />
            <mxPoint x="675" y="180" as="targetPoint" />
          </mxGeometry>
        </mxCell>
        <mxCell id="30Cwi_FGsYkR56jSSKwk-93" value="" style="endArrow=none;html=1;rounded=0;exitX=0.25;exitY=0;exitDx=0;exitDy=0;entryX=1;entryY=1;entryDx=0;entryDy=0;" edge="1" parent="1" source="30Cwi_FGsYkR56jSSKwk-4" target="30Cwi_FGsYkR56jSSKwk-86">
          <mxGeometry relative="1" as="geometry">
            <mxPoint x="620" y="210" as="sourcePoint" />
            <mxPoint x="615" y="180" as="targetPoint" />
          </mxGeometry>
        </mxCell>
        <mxCell id="30Cwi_FGsYkR56jSSKwk-95" value="&lt;font style=&quot;font-size: 9px;&quot;&gt;Title&lt;/font&gt;" style="ellipse;whiteSpace=wrap;html=1;align=center;" vertex="1" parent="1">
          <mxGeometry x="495" y="381" width="50" height="20" as="geometry" />
        </mxCell>
        <mxCell id="30Cwi_FGsYkR56jSSKwk-96" value="" style="endArrow=none;html=1;rounded=0;exitX=1;exitY=0.5;exitDx=0;exitDy=0;entryX=0;entryY=0.5;entryDx=0;entryDy=0;" edge="1" parent="1" source="30Cwi_FGsYkR56jSSKwk-98" target="30Cwi_FGsYkR56jSSKwk-3">
          <mxGeometry relative="1" as="geometry">
            <mxPoint x="545" y="365" as="sourcePoint" />
            <mxPoint x="620" y="290" as="targetPoint" />
          </mxGeometry>
        </mxCell>
        <mxCell id="30Cwi_FGsYkR56jSSKwk-97" value="" style="endArrow=none;html=1;rounded=0;exitX=1;exitY=0.5;exitDx=0;exitDy=0;entryX=0;entryY=0.5;entryDx=0;entryDy=0;" edge="1" parent="1" source="30Cwi_FGsYkR56jSSKwk-95" target="30Cwi_FGsYkR56jSSKwk-3">
          <mxGeometry relative="1" as="geometry">
            <mxPoint x="550" y="375" as="sourcePoint" />
            <mxPoint x="570" y="390" as="targetPoint" />
          </mxGeometry>
        </mxCell>
        <mxCell id="30Cwi_FGsYkR56jSSKwk-98" value="&lt;font style=&quot;font-size: 9px;&quot;&gt;SSN&lt;/font&gt;" style="ellipse;whiteSpace=wrap;html=1;align=center;fontStyle=4;" vertex="1" parent="1">
          <mxGeometry x="493" y="355" width="50" height="20" as="geometry" />
        </mxCell>
        <mxCell id="30Cwi_FGsYkR56jSSKwk-99" value="&lt;font style=&quot;font-size: 9px;&quot;&gt;hiringDate&lt;/font&gt;" style="ellipse;whiteSpace=wrap;html=1;align=center;" vertex="1" parent="1">
          <mxGeometry x="120" y="330" width="50" height="20" as="geometry" />
        </mxCell>
        <mxCell id="30Cwi_FGsYkR56jSSKwk-100" value="" style="endArrow=none;html=1;rounded=0;exitX=0;exitY=0.5;exitDx=0;exitDy=0;entryX=1;entryY=0.5;entryDx=0;entryDy=0;" edge="1" parent="1" source="30Cwi_FGsYkR56jSSKwk-14" target="30Cwi_FGsYkR56jSSKwk-99">
          <mxGeometry relative="1" as="geometry">
            <mxPoint x="235" y="347.5" as="sourcePoint" />
            <mxPoint x="160" y="367.5" as="targetPoint" />
          </mxGeometry>
        </mxCell>
        <mxCell id="30Cwi_FGsYkR56jSSKwk-102" value="" style="endArrow=none;html=1;rounded=0;exitX=1;exitY=0.5;exitDx=0;exitDy=0;entryX=0;entryY=0;entryDx=0;entryDy=0;" edge="1" parent="1" source="30Cwi_FGsYkR56jSSKwk-103" target="30Cwi_FGsYkR56jSSKwk-20">
          <mxGeometry relative="1" as="geometry">
            <mxPoint x="588.9999999999964" y="270" as="sourcePoint" />
            <mxPoint x="620" y="290" as="targetPoint" />
          </mxGeometry>
        </mxCell>
        <mxCell id="30Cwi_FGsYkR56jSSKwk-103" value="&lt;font style=&quot;font-size: 8px;&quot;&gt;DateBorrow&lt;/font&gt;" style="ellipse;whiteSpace=wrap;html=1;align=center;" vertex="1" parent="1">
          <mxGeometry x="535" y="260" width="50" height="20" as="geometry" />
        </mxCell>
        <mxCell id="30Cwi_FGsYkR56jSSKwk-104" value="&lt;font style=&quot;font-size: 9px;&quot;&gt;DueDate&lt;/font&gt;" style="ellipse;whiteSpace=wrap;html=1;align=center;" vertex="1" parent="1">
          <mxGeometry x="535" y="320" width="50" height="20" as="geometry" />
        </mxCell>
        <mxCell id="30Cwi_FGsYkR56jSSKwk-105" value="" style="endArrow=none;html=1;rounded=0;exitX=1;exitY=0.5;exitDx=0;exitDy=0;entryX=0;entryY=1;entryDx=0;entryDy=0;" edge="1" parent="1" source="30Cwi_FGsYkR56jSSKwk-104" target="30Cwi_FGsYkR56jSSKwk-20">
          <mxGeometry relative="1" as="geometry">
            <mxPoint x="589" y="276" as="sourcePoint" />
            <mxPoint x="605" y="303" as="targetPoint" />
          </mxGeometry>
        </mxCell>
        <mxCell id="30Cwi_FGsYkR56jSSKwk-106" value="&lt;font size=&quot;1&quot;&gt;Money&lt;/font&gt;" style="ellipse;whiteSpace=wrap;html=1;align=center;" vertex="1" parent="1">
          <mxGeometry x="639" y="310" width="50" height="20" as="geometry" />
        </mxCell>
        <mxCell id="30Cwi_FGsYkR56jSSKwk-107" value="" style="endArrow=none;html=1;rounded=0;exitX=0;exitY=0.5;exitDx=0;exitDy=0;entryX=1;entryY=1;entryDx=0;entryDy=0;" edge="1" parent="1" source="30Cwi_FGsYkR56jSSKwk-106" target="30Cwi_FGsYkR56jSSKwk-20">
          <mxGeometry relative="1" as="geometry">
            <mxPoint x="620" y="370" as="sourcePoint" />
            <mxPoint x="620" y="340" as="targetPoint" />
          </mxGeometry>
        </mxCell>
        <mxCell id="30Cwi_FGsYkR56jSSKwk-108" value="" style="endArrow=none;html=1;rounded=0;exitX=1;exitY=1;exitDx=0;exitDy=0;entryX=0.048;entryY=0.443;entryDx=0;entryDy=0;entryPerimeter=0;" edge="1" parent="1" target="30Cwi_FGsYkR56jSSKwk-20">
          <mxGeometry relative="1" as="geometry">
            <mxPoint x="310" y="237.5" as="sourcePoint" />
            <mxPoint x="580" y="302.5" as="targetPoint" />
          </mxGeometry>
        </mxCell>
        <mxCell id="30Cwi_FGsYkR56jSSKwk-109" value="M" style="resizable=0;html=1;whiteSpace=wrap;align=left;verticalAlign=bottom;direction=west;" connectable="0" vertex="1" parent="1">
          <mxGeometry x="610" y="256" as="geometry" />
        </mxCell>
        <mxCell id="30Cwi_FGsYkR56jSSKwk-110" value="M" style="resizable=0;html=1;whiteSpace=wrap;align=left;verticalAlign=bottom;direction=south;" connectable="0" vertex="1" parent="1">
          <mxGeometry x="610" y="360" as="geometry" />
        </mxCell>
        <mxCell id="30Cwi_FGsYkR56jSSKwk-111" value="M" style="resizable=0;html=1;whiteSpace=wrap;align=left;verticalAlign=bottom;direction=south;" connectable="0" vertex="1" parent="1">
          <mxGeometry x="310" y="241" as="geometry" />
        </mxCell>
        <mxCell id="30Cwi_FGsYkR56jSSKwk-112" value="" style="endArrow=none;html=1;rounded=0;exitX=0.5;exitY=0;exitDx=0;exitDy=0;entryX=0.439;entryY=0.95;entryDx=0;entryDy=0;entryPerimeter=0;" edge="1" parent="1">
          <mxGeometry relative="1" as="geometry">
            <mxPoint x="607.8" y="360" as="sourcePoint" />
            <mxPoint x="607.34" y="328.5" as="targetPoint" />
          </mxGeometry>
        </mxCell>
        <mxCell id="30Cwi_FGsYkR56jSSKwk-114" value="M" style="resizable=0;html=1;whiteSpace=wrap;align=left;verticalAlign=bottom;direction=south;" connectable="0" vertex="1" parent="1">
          <mxGeometry x="659" y="371" as="geometry" />
        </mxCell>
        <mxCell id="30Cwi_FGsYkR56jSSKwk-115" value="M" style="resizable=0;html=1;whiteSpace=wrap;align=left;verticalAlign=bottom;direction=south;" connectable="0" vertex="1" parent="1">
          <mxGeometry x="825" y="346" as="geometry" />
        </mxCell>
        <mxCell id="30Cwi_FGsYkR56jSSKwk-116" value="M" style="resizable=0;html=1;whiteSpace=wrap;align=left;verticalAlign=bottom;direction=south;" connectable="0" vertex="1" parent="1">
          <mxGeometry x="659" y="404" as="geometry" />
        </mxCell>
        <mxCell id="30Cwi_FGsYkR56jSSKwk-117" value="" style="endArrow=none;html=1;rounded=0;exitX=0;exitY=0.5;exitDx=0;exitDy=0;" edge="1" parent="1" source="30Cwi_FGsYkR56jSSKwk-30">
          <mxGeometry relative="1" as="geometry">
            <mxPoint x="713.8999999999999" y="420.65" as="sourcePoint" />
            <mxPoint x="660" y="380" as="targetPoint" />
          </mxGeometry>
        </mxCell>
        <mxCell id="30Cwi_FGsYkR56jSSKwk-118" value="" style="endArrow=none;html=1;rounded=0;exitX=0;exitY=0.5;exitDx=0;exitDy=0;entryX=0.926;entryY=0.572;entryDx=0;entryDy=0;entryPerimeter=0;" edge="1" parent="1" target="30Cwi_FGsYkR56jSSKwk-30">
          <mxGeometry relative="1" as="geometry">
            <mxPoint x="840" y="424.67" as="sourcePoint" />
            <mxPoint x="770" y="424.67" as="targetPoint" />
          </mxGeometry>
        </mxCell>
        <mxCell id="30Cwi_FGsYkR56jSSKwk-119" value="1" style="resizable=0;html=1;whiteSpace=wrap;align=left;verticalAlign=bottom;direction=south;" connectable="0" vertex="1" parent="1">
          <mxGeometry x="830" y="423" as="geometry" />
        </mxCell>
        <mxCell id="30Cwi_FGsYkR56jSSKwk-120" value="" style="endArrow=none;html=1;rounded=0;exitX=0.1;exitY=0.394;exitDx=0;exitDy=0;entryX=1.001;entryY=0.371;entryDx=0;entryDy=0;exitPerimeter=0;entryPerimeter=0;" edge="1" parent="1" target="30Cwi_FGsYkR56jSSKwk-3">
          <mxGeometry relative="1" as="geometry">
            <mxPoint x="716" y="341.66999999999996" as="sourcePoint" />
            <mxPoint x="659" y="376" as="targetPoint" />
          </mxGeometry>
        </mxCell>
        <mxCell id="30Cwi_FGsYkR56jSSKwk-121" value="" style="endArrow=none;html=1;rounded=0;exitX=0;exitY=0.5;exitDx=0;exitDy=0;entryX=0.928;entryY=0.424;entryDx=0;entryDy=0;entryPerimeter=0;" edge="1" parent="1">
          <mxGeometry relative="1" as="geometry">
            <mxPoint x="840" y="344" as="sourcePoint" />
            <mxPoint x="765.6800000000001" y="343.32000000000005" as="targetPoint" />
          </mxGeometry>
        </mxCell>
        <mxCell id="30Cwi_FGsYkR56jSSKwk-122" value="Author" style="whiteSpace=wrap;html=1;align=center;" vertex="1" parent="1">
          <mxGeometry x="840" y="325" width="100" height="40" as="geometry" />
        </mxCell>
        <mxCell id="30Cwi_FGsYkR56jSSKwk-123" value="Has" style="shape=rhombus;perimeter=rhombusPerimeter;whiteSpace=wrap;html=1;align=center;" vertex="1" parent="1">
          <mxGeometry x="710" y="320" width="60" height="50" as="geometry" />
        </mxCell>
        <mxCell id="30Cwi_FGsYkR56jSSKwk-124" value="&lt;font style=&quot;font-size: 9px;&quot;&gt;Name&lt;/font&gt;" style="ellipse;whiteSpace=wrap;html=1;align=center;" vertex="1" parent="1">
          <mxGeometry x="890" y="280" width="50" height="20" as="geometry" />
        </mxCell>
        <mxCell id="30Cwi_FGsYkR56jSSKwk-125" value="&lt;font style=&quot;font-size: 9px;&quot;&gt;Id&lt;/font&gt;" style="ellipse;whiteSpace=wrap;html=1;align=center;fontStyle=4;" vertex="1" parent="1">
          <mxGeometry x="836" y="280" width="50" height="20" as="geometry" />
        </mxCell>
        <mxCell id="30Cwi_FGsYkR56jSSKwk-126" value="" style="endArrow=none;html=1;rounded=0;exitX=0.5;exitY=1;exitDx=0;exitDy=0;entryX=0.5;entryY=0;entryDx=0;entryDy=0;" edge="1" parent="1" target="30Cwi_FGsYkR56jSSKwk-122">
          <mxGeometry relative="1" as="geometry">
            <mxPoint x="864.76" y="300" as="sourcePoint" />
            <mxPoint x="864.76" y="340" as="targetPoint" />
          </mxGeometry>
        </mxCell>
        <mxCell id="30Cwi_FGsYkR56jSSKwk-127" value="" style="endArrow=none;html=1;rounded=0;exitX=0.5;exitY=1;exitDx=0;exitDy=0;entryX=0.5;entryY=0;entryDx=0;entryDy=0;" edge="1" parent="1" source="30Cwi_FGsYkR56jSSKwk-124" target="30Cwi_FGsYkR56jSSKwk-122">
          <mxGeometry relative="1" as="geometry">
            <mxPoint x="874.76" y="310" as="sourcePoint" />
            <mxPoint x="900" y="335" as="targetPoint" />
          </mxGeometry>
        </mxCell>
        <mxCell id="30Cwi_FGsYkR56jSSKwk-128" value="&lt;font style=&quot;font-size: 9px;&quot;&gt;Name&lt;/font&gt;" style="ellipse;whiteSpace=wrap;html=1;align=center;" vertex="1" parent="1">
          <mxGeometry x="890" y="370" width="50" height="20" as="geometry" />
        </mxCell>
        <mxCell id="30Cwi_FGsYkR56jSSKwk-129" value="&lt;font style=&quot;font-size: 9px;&quot;&gt;Id&lt;/font&gt;" style="ellipse;whiteSpace=wrap;html=1;align=center;fontStyle=4;" vertex="1" parent="1">
          <mxGeometry x="836" y="370" width="50" height="20" as="geometry" />
        </mxCell>
        <mxCell id="30Cwi_FGsYkR56jSSKwk-130" value="" style="endArrow=none;html=1;rounded=0;exitX=0.5;exitY=1;exitDx=0;exitDy=0;entryX=0.5;entryY=0;entryDx=0;entryDy=0;" edge="1" parent="1" source="30Cwi_FGsYkR56jSSKwk-129">
          <mxGeometry relative="1" as="geometry">
            <mxPoint x="864.88" y="376" as="sourcePoint" />
            <mxPoint x="890.12" y="401" as="targetPoint" />
          </mxGeometry>
        </mxCell>
        <mxCell id="30Cwi_FGsYkR56jSSKwk-131" value="" style="endArrow=none;html=1;rounded=0;exitX=0.5;exitY=1;exitDx=0;exitDy=0;entryX=0.5;entryY=0;entryDx=0;entryDy=0;" edge="1" parent="1" source="30Cwi_FGsYkR56jSSKwk-128">
          <mxGeometry relative="1" as="geometry">
            <mxPoint x="915.12" y="376" as="sourcePoint" />
            <mxPoint x="890.12" y="401" as="targetPoint" />
          </mxGeometry>
        </mxCell>
        <mxCell id="30Cwi_FGsYkR56jSSKwk-132" value="&lt;font style=&quot;font-size: 9px;&quot;&gt;CatName&lt;/font&gt;" style="ellipse;whiteSpace=wrap;html=1;align=center;" vertex="1" parent="1">
          <mxGeometry x="760" y="540" width="50" height="20" as="geometry" />
        </mxCell>
        <mxCell id="30Cwi_FGsYkR56jSSKwk-133" value="&lt;font style=&quot;font-size: 9px;&quot;&gt;Id&lt;/font&gt;" style="ellipse;whiteSpace=wrap;html=1;align=center;fontStyle=4;" vertex="1" parent="1">
          <mxGeometry x="760" y="510" width="50" height="20" as="geometry" />
        </mxCell>
        <mxCell id="30Cwi_FGsYkR56jSSKwk-134" value="" style="endArrow=none;html=1;rounded=0;exitX=0;exitY=0.5;exitDx=0;exitDy=0;entryX=1;entryY=0.5;entryDx=0;entryDy=0;" edge="1" parent="1" source="30Cwi_FGsYkR56jSSKwk-133" target="30Cwi_FGsYkR56jSSKwk-7">
          <mxGeometry relative="1" as="geometry">
            <mxPoint x="793.32" y="533.6800000000001" as="sourcePoint" />
            <mxPoint x="719.0000000000001" y="533" as="targetPoint" />
          </mxGeometry>
        </mxCell>
        <mxCell id="30Cwi_FGsYkR56jSSKwk-135" value="" style="endArrow=none;html=1;rounded=0;exitX=0;exitY=0.5;exitDx=0;exitDy=0;entryX=1;entryY=0.5;entryDx=0;entryDy=0;" edge="1" parent="1" source="30Cwi_FGsYkR56jSSKwk-132" target="30Cwi_FGsYkR56jSSKwk-7">
          <mxGeometry relative="1" as="geometry">
            <mxPoint x="770" y="530" as="sourcePoint" />
            <mxPoint x="729.0000000000001" y="543" as="targetPoint" />
          </mxGeometry>
        </mxCell>
        <mxCell id="30Cwi_FGsYkR56jSSKwk-136" value="&lt;font style=&quot;font-size: 9px;&quot;&gt;Code&lt;/font&gt;" style="ellipse;whiteSpace=wrap;html=1;align=center;fontStyle=4;" vertex="1" parent="1">
          <mxGeometry x="470" y="490" width="50" height="20" as="geometry" />
        </mxCell>
        <mxCell id="30Cwi_FGsYkR56jSSKwk-137" value="" style="endArrow=none;html=1;rounded=0;exitX=0.5;exitY=1;exitDx=0;exitDy=0;entryX=0;entryY=0;entryDx=0;entryDy=0;" edge="1" parent="1" source="30Cwi_FGsYkR56jSSKwk-136" target="30Cwi_FGsYkR56jSSKwk-8">
          <mxGeometry relative="1" as="geometry">
            <mxPoint x="561" y="490" as="sourcePoint" />
            <mxPoint x="520" y="510" as="targetPoint" />
          </mxGeometry>
        </mxCell>
        <mxCell id="30Cwi_FGsYkR56jSSKwk-138" value="1" style="resizable=0;html=1;whiteSpace=wrap;align=left;verticalAlign=bottom;direction=south;" connectable="0" vertex="1" parent="1">
          <mxGeometry x="656" y="522" as="geometry" />
        </mxCell>
        <mxCell id="30Cwi_FGsYkR56jSSKwk-139" value="M" style="resizable=0;html=1;whiteSpace=wrap;align=left;verticalAlign=bottom;direction=south;" connectable="0" vertex="1" parent="1">
          <mxGeometry x="635" y="415" as="geometry" />
        </mxCell>
        <mxCell id="30Cwi_FGsYkR56jSSKwk-140" value="" style="endArrow=none;html=1;rounded=0;entryX=0.577;entryY=1.006;entryDx=0;entryDy=0;entryPerimeter=0;" edge="1" parent="1" target="30Cwi_FGsYkR56jSSKwk-3">
          <mxGeometry relative="1" as="geometry">
            <mxPoint x="670" y="430" as="sourcePoint" />
            <mxPoint x="617.7" y="400" as="targetPoint" />
          </mxGeometry>
        </mxCell>
        <mxCell id="30Cwi_FGsYkR56jSSKwk-141" value="" style="endArrow=none;html=1;rounded=0;entryX=0.432;entryY=1.014;entryDx=0;entryDy=0;entryPerimeter=0;exitX=0.5;exitY=0;exitDx=0;exitDy=0;" edge="1" parent="1" source="30Cwi_FGsYkR56jSSKwk-36" target="30Cwi_FGsYkR56jSSKwk-3">
          <mxGeometry relative="1" as="geometry">
            <mxPoint x="680" y="440" as="sourcePoint" />
            <mxPoint x="628" y="410" as="targetPoint" />
          </mxGeometry>
        </mxCell>
        <mxCell id="30Cwi_FGsYkR56jSSKwk-142" value="" style="endArrow=none;html=1;rounded=0;exitX=0.54;exitY=0;exitDx=0;exitDy=0;entryX=0.567;entryY=0.92;entryDx=0;entryDy=0;entryPerimeter=0;exitPerimeter=0;" edge="1" parent="1" source="30Cwi_FGsYkR56jSSKwk-8" target="30Cwi_FGsYkR56jSSKwk-36">
          <mxGeometry relative="1" as="geometry">
            <mxPoint x="568.71" y="530" as="sourcePoint" />
            <mxPoint x="568.71" y="490" as="targetPoint" />
          </mxGeometry>
        </mxCell>
        <mxCell id="30Cwi_FGsYkR56jSSKwk-143" value="M" style="resizable=0;html=1;whiteSpace=wrap;align=left;verticalAlign=bottom;direction=south;" connectable="0" vertex="1" parent="1">
          <mxGeometry x="570" y="415" as="geometry" />
        </mxCell>
        <mxCell id="30Cwi_FGsYkR56jSSKwk-144" value="1" style="resizable=0;html=1;whiteSpace=wrap;align=left;verticalAlign=bottom;direction=south;" connectable="0" vertex="1" parent="1">
          <mxGeometry x="547" y="522" as="geometry" />
        </mxCell>
        <mxCell id="30Cwi_FGsYkR56jSSKwk-145" value="" style="endArrow=none;html=1;rounded=0;exitX=0;exitY=0.5;exitDx=0;exitDy=0;entryX=0.5;entryY=1;entryDx=0;entryDy=0;" edge="1" parent="1" source="30Cwi_FGsYkR56jSSKwk-39">
          <mxGeometry relative="1" as="geometry">
            <mxPoint x="360" y="525" as="sourcePoint" />
            <mxPoint x="270" y="480" as="targetPoint" />
          </mxGeometry>
        </mxCell>
        <mxCell id="30Cwi_FGsYkR56jSSKwk-146" value="" style="endArrow=none;html=1;rounded=0;exitX=0.002;exitY=0.584;exitDx=0;exitDy=0;entryX=0.938;entryY=0.548;entryDx=0;entryDy=0;exitPerimeter=0;entryPerimeter=0;" edge="1" parent="1" source="30Cwi_FGsYkR56jSSKwk-8" target="30Cwi_FGsYkR56jSSKwk-39">
          <mxGeometry relative="1" as="geometry">
            <mxPoint x="507" y="543" as="sourcePoint" />
            <mxPoint x="408" y="528" as="targetPoint" />
          </mxGeometry>
        </mxCell>
        <mxCell id="30Cwi_FGsYkR56jSSKwk-147" value="1" style="resizable=0;html=1;whiteSpace=wrap;align=left;verticalAlign=bottom;direction=south;" connectable="0" vertex="1" parent="1">
          <mxGeometry x="290" y="495" as="geometry" />
        </mxCell>
        <mxCell id="30Cwi_FGsYkR56jSSKwk-148" value="M" style="resizable=0;html=1;whiteSpace=wrap;align=left;verticalAlign=bottom;direction=south;" connectable="0" vertex="1" parent="1">
          <mxGeometry x="493" y="540" as="geometry" />
        </mxCell>
        <mxCell id="30Cwi_FGsYkR56jSSKwk-151" value="" style="endArrow=none;html=1;rounded=0;exitX=0.387;exitY=0.104;exitDx=0;exitDy=0;entryX=0.5;entryY=1;entryDx=0;entryDy=0;exitPerimeter=0;" edge="1" parent="1" source="30Cwi_FGsYkR56jSSKwk-14">
          <mxGeometry relative="1" as="geometry">
            <mxPoint x="215" y="310" as="sourcePoint" />
            <mxPoint x="255" y="240" as="targetPoint" />
          </mxGeometry>
        </mxCell>
        <mxCell id="30Cwi_FGsYkR56jSSKwk-152" value="" style="endArrow=none;html=1;rounded=0;exitX=0.908;exitY=0.57;exitDx=0;exitDy=0;entryX=0;entryY=0.5;entryDx=0;entryDy=0;exitPerimeter=0;" edge="1" parent="1" source="30Cwi_FGsYkR56jSSKwk-9">
          <mxGeometry relative="1" as="geometry">
            <mxPoint x="460" y="223" as="sourcePoint" />
            <mxPoint x="560" y="223" as="targetPoint" />
          </mxGeometry>
        </mxCell>
      </root>
    </mxGraphModel>
  </diagram>
</mxfile>
